<?xml version="1.0" encoding="utf-8"?>
<svg version="1.1" xmlns:xlink="http://www.w3.org/1999/xlink" width="153px" height="56px" xmlns="http://www.w3.org/2000/svg">
  <g transform="matrix(1 0 0 1 -124 -81 )">
    <path d="M 124 81  L 277 81  L 277 137  L 124 137  L 124 81  " fill-rule="nonzero" fill="#cccccc" stroke="none" />
    <path d="M 128 85  L 273 85  L 273 133  L 128 133  L 128 85  " fill-rule="nonzero" fill="#ffffff" stroke="none" />
    <path d="M 207.76 97.8  C 205.408 97.8  203.56 95.952  203.56 93.6  C 203.56 91.248  205.408 89.4  207.76 89.4  C 210.112 89.4  211.96 91.248  211.96 93.6  C 211.96 95.952  210.112 97.8  207.76 97.8  " fill-rule="nonzero" fill="#cccccc" stroke="none" />
    <path d="M 130 132  L 130 107.25  L 165.5 96  L 215.2 122.117647058824  L 243.6 102.75  L 272 122.117647058824  L 272 132  L 130 132  " fill-rule="nonzero" fill="#767676" stroke="none" />
  </g>
</svg>