<?xml version="1.0" encoding="utf-8"?>
<svg version="1.1" xmlns:xlink="http://www.w3.org/1999/xlink" width="67px" height="68px" xmlns="http://www.w3.org/2000/svg">
  <g transform="matrix(1 0 0 1 -62 -300 )">
    <path d="M 95.5 300  C 114.26 300  129 314.96  129 334  C 129 353.04  114.26 368  95.5 368  C 76.74 368  62 353.04  62 334  C 62 314.96  76.74 300  95.5 300  Z " fill-rule="nonzero" fill="#ffffff" stroke="none" />
    <path d="M 95.5 300.5  C 113.98 300.5  128.5 315.24  128.5 334  C 128.5 352.76  113.98 367.5  95.5 367.5  C 77.02 367.5  62.5 352.76  62.5 334  C 62.5 315.24  77.02 300.5  95.5 300.5  Z " stroke-width="1" stroke="#797979" fill="none" />
  </g>
</svg>