<?xml version="1.0" encoding="utf-8"?>
<svg version="1.1" xmlns:xlink="http://www.w3.org/1999/xlink" width="26px" height="26px" viewBox="638 542  26 26" xmlns="http://www.w3.org/2000/svg">
  <path d="M 651 542  C 658.28 542  664 547.72  664 555  C 664 562.28  658.28 568  651 568  C 643.72 568  638 562.28  638 555  C 638 547.72  643.72 542  651 542  Z " fill-rule="nonzero" fill="#f0f0f0" stroke="none" />
  <path d="M 651 542.5  C 658 542.5  663.5 548  663.5 555  C 663.5 562  658 567.5  651 567.5  C 644 567.5  638.5 562  638.5 555  C 638.5 548  644 542.5  651 542.5  Z " stroke-width="1" stroke="#797979" fill="none" />
  <path d="M 651 561.5  C 647.36 561.5  644.5 558.64  644.5 555  C 644.5 551.36  647.36 548.5  651 548.5  C 654.64 548.5  657.5 551.36  657.5 555  C 657.5 558.64  654.64 561.5  651 561.5  " fill-rule="nonzero" fill="#797979" stroke="none" />
</svg>