<?xml version="1.0" encoding="utf-8"?>
<svg version="1.1" xmlns:xlink="http://www.w3.org/1999/xlink" width="26px" height="26px" viewBox="593 542  26 26" xmlns="http://www.w3.org/2000/svg">
  <path d="M 606 542  C 613.28 542  619 547.72  619 555  C 619 562.28  613.28 568  606 568  C 598.72 568  593 562.28  593 555  C 593 547.72  598.72 542  606 542  Z " fill-rule="nonzero" fill="#ffffff" stroke="none" />
  <path d="M 606 542.5  C 613 542.5  618.5 548  618.5 555  C 618.5 562  613 567.5  606 567.5  C 599 567.5  593.5 562  593.5 555  C 593.5 548  599 542.5  606 542.5  Z " stroke-width="1" stroke="#797979" fill="none" />
  <path d="M 606 561.5  C 602.36 561.5  599.5 558.64  599.5 555  C 599.5 551.36  602.36 548.5  606 548.5  C 609.64 548.5  612.5 551.36  612.5 555  C 612.5 558.64  609.64 561.5  606 561.5  " fill-rule="nonzero" fill="#797979" stroke="none" />
</svg>